<svg id="Capa_1" enable-background="new 0 0 512 512" height="512" viewBox="0 0 512 512" width="512" xmlns="http://www.w3.org/2000/svg"><g><circle cx="256" cy="256" fill="#dae4ea" r="155.068"/><g fill="#ecbe6b"><path d="m158.306 296.466c.717 1.274.862 2.864.213 4.336l-36.544 82.833c-1.786 4.048 2.342 8.176 6.39 6.39l82.833-36.544c1.472-.65 3.063-.505 4.337.213l37.008-50.336 3.457-47.358h-54.865z"/><path d="m215.534 158.306c-1.274.717-2.864.862-4.336.213l-82.833-36.544c-4.048-1.786-8.176 2.342-6.39 6.39l36.544 82.833c.65 1.472.505 3.063-.213 4.337l50.336 37.008 47.358 3.457v-54.865z"/><path d="m353.694 215.534c-.717-1.274-.862-2.864-.213-4.336l36.544-82.833c1.786-4.048-2.342-8.176-6.39-6.39l-82.833 36.544c-1.472.65-3.063.505-4.337-.213l-37.008 50.336-3.457 47.358h54.865z"/><path d="m296.466 353.694c1.274-.717 2.864-.862 4.336-.213l82.833 36.544c4.048 1.786 8.176-2.342 6.39-6.39l-36.544-82.833c-.65-1.472-.505-3.063.213-4.337l-50.336-37.008-47.358-3.457v54.865z"/></g><path d="m296.465 158.306c-1.148-.647-2.039-1.76-2.351-3.177l-33.382-151.327c-1.118-5.07-8.346-5.07-9.465 0l-33.381 151.327c-.313 1.417-1.204 2.53-2.352 3.177l40.466 97.694z" fill="#f1cb86"/><path d="m158.306 215.534c-.647 1.149-1.76 2.04-3.177 2.352l-151.327 33.382c-5.07 1.118-5.07 8.347 0 9.465l151.327 33.381c1.417.313 2.53 1.203 3.177 2.352l97.694-40.466z" fill="#f1cb86"/><path d="m508.198 251.268-151.327-33.382c-1.417-.313-2.53-1.204-3.177-2.353l-97.694 40.467 97.694 40.466c.647-1.148 1.76-2.039 3.177-2.352l151.327-33.381c5.069-1.119 5.069-8.347 0-9.465z" fill="#f1cb86"/><path d="m215.534 353.694c1.149.647 2.04 1.76 2.352 3.177l33.381 151.327c1.118 5.07 8.346 5.07 9.465 0l33.381-151.327c.313-1.417 1.204-2.53 2.353-3.177l-40.466-97.694z" fill="#f1cb86"/></g></svg>